<svg xmlns="http://www.w3.org/2000/svg" width="376.006" height="16.709" viewBox="0 0 376.006 16.709">
  <path id="distorted_-_mobile_-_unten" data-name="distorted - mobile - unten" d="M376.006,0H0V14.072c7.732-.008,15.207-.008,21.8-.008H57.777c1.064,0,1.348.267,1.441,1.362a2.445,2.445,0,0,0,.623.084,1.24,1.24,0,0,0,1.4-1.167c.045.058.084.114.123.173l.016.022.041.053a.425.425,0,0,0,.031.042l.016.021a1.225,1.225,0,0,0,.082.115c.01.015.021.03.033.045.039-.093.094-.234.143-.365.025-.066.053-.135.08-.2.014-.038.029-.075.045-.113l.023-.061h0c.125,0,.258-.008.385-.016l.043,0,.063,0h.018c.109-.008.232-.017.352-.017a1.53,1.53,0,0,1,.529.079,1.337,1.337,0,0,1,.637.906c.072.359.152.553.377.553a1.124,1.124,0,0,0,.428-.116,2.035,2.035,0,0,1,.719-.1h.008a2.463,2.463,0,0,0,.668-.075,9.223,9.223,0,0,0,1.143-.5l.02-.009.051-.025.293-.139.293-.14.012.042a.528.528,0,0,0,.021.123l.008.048c.012.052.021.1.027.135l.008.023.229.023h.008l.264.027c.186.015.393.037.574.056l.184.019A1.173,1.173,0,0,1,70.48,14.1a3.945,3.945,0,0,1,.645.06,8.7,8.7,0,0,0,1.441.1c.346,0,.7-.01.99-.019h.014l.076,0c.213-.008.4-.016.6-.016.309-.007.623-.031.928-.054h.008l.277-.021c.461-.041.953-.079,1.422-.079h1.3q4.623-.005,9.551-.007c4.535,0,9.354,0,14.729.014a1.853,1.853,0,0,0,.2-.016h.02l0,0,.047-.005a1.979,1.979,0,0,1,.223-.018.366.366,0,0,1,.3.111.62.62,0,0,1,.064.507.006.006,0,0,0,0,.006l.01.007a1.05,1.05,0,0,0,.479.191c.293.016.551.023.785.023a11.319,11.319,0,0,0,4.063-.7,2.463,2.463,0,0,1,.842-.116l.1,0h.432c.967,0,1.939,0,2.723,0h2.641l-.014.038c-.006.024-.014.047-.02.069-.014.044-.027.086-.041.125a.15.15,0,0,0-.008.027.039.039,0,0,0-.006.02l-.008.021a.429.429,0,0,1-.016.048.794.794,0,0,1-.025.083l-.012.031c0,.01-.006.02-.01.03l-.008.027,0,.02c0,.008-.006.017-.01.025l-.006.025a3.342,3.342,0,0,0,1.227.223,7.849,7.849,0,0,0,1.666-.242h.006l.076-.017a8.879,8.879,0,0,1,1.574-.255l.039,0h.008l.043,0a3.284,3.284,0,0,1,.641.083l.047.011a3.57,3.57,0,0,0,.627.069,1.51,1.51,0,0,0,.26-.019,53.654,53.654,0,0,1,5.979-.418c1.125-.025,2.242-.038,3.514-.038.639,0,1.273,0,1.945.006h.115l.439,0c.637,0,1.6.009,2.5.009,22.82,0,46.418,0,69.623,0a5.1,5.1,0,0,1,.719.069l.039,0c.063.009.188.025.32.037a.209.209,0,0,0,0,.035c0,.012,0,.023,0,.035a.209.209,0,0,1,0,.035.206.206,0,0,1,0,.035l-.006.1v.023c-6.174.248-11.766.47-17.09.679h.008c.354,0,.764,0,1.2-.007l.262,0c.646-.009,1.508-.019,2.422-.019,1.143,0,2.184.017,3.184.051,1.939.076,3.959.246,5.74.4h.018l.057,0c.938.082,1.734.147,2.436.2-.006.06-.01.123-.01.19l0,.01-.006.074c-.322.057-.605.106-.867.151l-.029,0-.391.067c4.525.1,9.375.144,14.418.144,12.4,0,24.547-.3,34.789-.59l-3.24-.288v-.26h1.57c.107,0,.207,0,.313,0a32.658,32.658,0,0,1,6.418.525,7.658,7.658,0,0,0,1.465.135,11.731,11.731,0,0,0,3.662-.632,19.057,19.057,0,0,1,6.223-.906c.729,0,1.494.023,2.412.074,1.734.1,3.561.153,5.17.2l.064,0,.482.014c1.375.034,2.973.077,4.537.149,2.078.1,4.219.247,6.064.376h.02c.623.044,1.316.091,2.031.14l.549.037c.188.014.369.023.57.032l.07,0c.16,0,.334.014.516.028l-.111-.274-.039-.1c-.023-.062-.043-.113-.057-.156l1.238-.034.076,0c4.822-.13,9.809-.265,14.719-.4l.006.143.006.065c0,.021,0,.042,0,.062l-.465.046-.912.1-.078.008c-.268.028-.537.056-.8.085l-.174.019v.051l2.3.147c1.131.073,2.3.148,3.471.22l1,.065,1.877.123.258.017,1,.065c-.58.1-1.025.175-1.451.251l-.2.033c-.393.07-.777.136-1.16.2l-.764.132h.027c.748,0,1.529,0,2.193-.009.781,0,1.508,0,2.209,0,1.316,0,2.3.01,3.193.032a11.954,11.954,0,0,1,1.686.2l.02,0,.035.006h.006a11.828,11.828,0,0,0,1.6.188c.111,0,.229,0,.354,0,.66,0,1.357-.054,1.918-.1h.006c.486-.039.961-.075,1.441-.093l.541-.018.732-.024.58-.019.211-.007h.014c3-.1,6.1-.2,9.164-.257,4.881-.09,9.875-.167,14.281-.234l.5-.008.553-.008h.066c1.975-.029,4.016-.059,6.021-.093.207,0,.412-.01.631-.021l.057,0,.188-.009.027,0c.125,0,.25-.01.408-.019l.084,0-.055.107-.051.091-.076.138c-.035.062-.055.1-.064.115l3.316-.049,2.367-.035.939-.014,1.539-.019c2.313-.032,5.189-.072,7.971-.116l0-16.006Z"/>
</svg>
