<svg xmlns="http://www.w3.org/2000/svg" width="356.498" height="892.014" viewBox="0 0 356.498 892.014">
  <path id="HG-Termine" d="M17995.568-3933.992a2.389,2.389,0,0,1-1.682-.877,3.041,3.041,0,0,0-2.709-.864c-2.982.142-5.975.046-8.967.046a2.743,2.743,0,0,0-1.543.338c.434.26.871.521,1.3.777-.008.05-.018.1-.027.151-.881-.265-1.775-.489-2.635-.8a11.192,11.192,0,0,0-6.049-.854c-1.48.26-3.1-.411-4.664-.5q-13.91-.823-27.82-1.54c-.521-.023-1.068.4-1.764.681-.5-1.3-2.02-.831-3.32-1.073a3.879,3.879,0,0,0-.8-.027c-.717.027-1.457.05-1.9-.882-.086-.174-.566-.169-1.014-.164-.16,0-.316,0-.447,0-3.309-.15-6.619-.27-9.928-.406h-43.859c-1.732.408-3.416.964-5.135,1.421h-.863c-1.562-1.334-3.5-3.947-4.623-3.778-5.029.749-5.879-1.919-7.729-3.9-5.236.662-7.2-.484-7.57-4.331-.348-3.513-.951-7.017-1.156-10.53-.512-8.931-1.01-17.862-1.229-26.8-.191-7.606-.123-15.221.082-22.832.16-6-.215-12.005.658-18,.406-2.8.068-5.651.068-8.629l-2.221-1.01a18.826,18.826,0,0,0,.705-3.732c-.115-3.485-.535-6.966-.6-10.448-.045-2.7-1.748-5.559,1.084-8.076-1.883-1.17-1.252-2.344-.617-3.518a3.358,3.358,0,0,0,.611-2.006,25.665,25.665,0,0,0-.625-3.362c-.475-1.6-1.668-3.189-1.58-4.76a21.944,21.944,0,0,1,2.426-8.488c-.186-7.538-.117-15.084.086-22.626.16-6-.215-12.005.658-18,.406-2.8.068-5.651.068-8.634-.7-.315-1.736-.786-2.221-1a18.823,18.823,0,0,0,.705-3.732c-.115-3.485-.535-6.966-.6-10.447-.045-2.709-1.748-5.56,1.084-8.077-1.883-1.169-1.252-2.344-.617-3.518a3.368,3.368,0,0,0,.611-2.005,25.653,25.653,0,0,0-.625-3.362c-.475-1.6-1.668-3.189-1.58-4.76.219-4.13,1.963-8.008,4.242-11.8-.242-1.911-.471-3.823-.584-5.74-.512-8.926-1.01-17.861-1.229-26.792-.191-7.611-.123-15.226.082-22.832.16-6-.215-12.005.658-18,.406-2.8.068-5.646.068-8.629l-2.221-1.009a18.766,18.766,0,0,0,.705-3.732c-.115-3.481-.535-6.962-.6-10.448-.045-2.7-1.748-5.559,1.084-8.072-1.883-1.174-1.252-2.348-.617-3.518a3.371,3.371,0,0,0,.611-2.01,25.747,25.747,0,0,0-.625-3.357c-.475-1.6-1.668-3.193-1.58-4.76a24.065,24.065,0,0,1,3.436-10.412c-.428-7.623-.818-15.246-1.006-22.873-.191-7.61-.123-15.221.082-22.832.16-6-.215-12.005.658-18,.406-2.8.068-5.646.068-8.629-.7-.32-1.736-.786-2.221-1.005a18.8,18.8,0,0,0,.705-3.737c-.115-3.481-.535-6.962-.6-10.443-.045-2.709-1.748-5.56,1.084-8.077-1.883-1.174-1.252-2.343-.617-3.518a3.366,3.366,0,0,0,.611-2.005,25.683,25.683,0,0,0-.625-3.362c-.475-1.6-1.668-3.193-1.58-4.76.211-3.972,1.83-7.71,3.982-11.361-.137-1.2-.254-2.4-.324-3.6-.512-8.931-1.01-17.862-1.229-26.8-.191-7.606-.123-15.222.082-22.832.16-6-.215-12.005.658-18,.406-2.8.068-5.651.068-8.634-.7-.315-1.736-.786-2.221-1a18.829,18.829,0,0,0,.705-3.732c-.115-3.485-.535-6.967-.6-10.448-.045-2.709-1.748-5.56,1.084-8.077-1.883-1.169-1.252-2.343-.617-3.517a3.359,3.359,0,0,0,.611-2.006,25.661,25.661,0,0,0-.625-3.362c-.475-1.6-1.668-3.189-1.58-4.76.219-4.122,1.955-7.992,4.229-11.774-.236-1.875-.461-3.75-.57-5.63-.512-8.926-1.01-17.862-1.229-26.793-.191-7.61-.123-15.226.082-22.832.16-6-.215-12.005.658-18,.406-2.8.068-5.646.068-8.629l-2.221-1.009a18.766,18.766,0,0,0,.705-3.732c-.115-3.485-.535-6.962-.6-10.447-.045-2.7-1.748-5.56,1.084-8.072-1.883-1.174-1.252-2.348-.617-3.522a3.349,3.349,0,0,0,.611-2.005,25.8,25.8,0,0,0-.625-3.362c-.475-1.6-1.668-3.188-1.58-4.755a23.538,23.538,0,0,1,3.2-9.977c-.33-6.165-.613-12.33-.766-18.5-.191-7.606-.123-15.221.082-22.832.16-6-.215-12.005.658-18,.406-2.8.068-5.651.068-8.634-.7-.315-1.736-.786-2.221-1a18.819,18.819,0,0,0,.705-3.732c-.115-3.486-.535-6.967-.6-10.448-.045-2.709-1.748-5.56,1.084-8.077-1.883-1.169-1.252-2.343-.617-3.518a3.358,3.358,0,0,0,.611-2.005,25.683,25.683,0,0,0-.625-3.362c-.475-1.6-1.668-3.188-1.58-4.76.236-4.477,2.266-8.657,4.828-12.75a20.087,20.087,0,0,0,2.467-6.633c.508-2.462,1.475-4,5.578-4.075,2.463-.041,4.893-1.028,7.541-1.635.094.425.191.866.289,1.32h13.426c1.084-1.748,2.2-3.484,3.3-5.227l1.307.274c.17,1.649.395,3.3.551,4.951q4.573,0,9.146-.008a18.822,18.822,0,0,0,2.262-.21c4.326-.539,8.643-1.292,12.982-1.594,6.936-.479,13.893-.662,20.842-.982.131,0,.283,0,.443,0,.451,0,.932.009,1.014-.165.447-.932,1.188-.909,1.9-.882a3.862,3.862,0,0,0,.8-.027c1.3-.242,2.822.229,3.32-1.078.7.283,1.242.708,1.764.681q13.91-.713,27.82-1.535c1.563-.1,3.184-.763,4.664-.5a11.289,11.289,0,0,0,6.049-.854c.859-.32,1.754-.539,2.631-.809.014.055.023.1.031.151-.434.26-.871.521-1.3.776a2.712,2.712,0,0,0,1.543.343c2.992,0,5.984-.1,8.967.041a3.018,3.018,0,0,0,2.709-.863,2.392,2.392,0,0,1,1.678-.873h.068a2.982,2.982,0,0,1,1.7.712,2.265,2.265,0,0,0,1.16.617c2.279-.045,4.564-.169,6.838-.329.2-.014.371-.512.518-.727,4.568,0,9.209-.247,13.814.046,12.045.763,24.074,1.882,36.121,2.6,5.357.324,10.752.036,16.135.027.3,0,.686-.133.895,0,1.768,1.151,3.732.877,5.523.438a22.3,22.3,0,0,1,7.5-.845c.041.009.092-.137.256-.4-.758-.214-1.471-.416-2.494-.708,1.736-.7,2.865.146,3.971.722,2.484,1.293,4.992,1.289,7.93.489-.7-.366-1.115-.581-1.525-.791a2.257,2.257,0,0,1,1.727-.064,25.584,25.584,0,0,0,3.439,1.59c5.213,1.265,10.461,2.389,15.7,3.568,0-.233,0-.461,0-.694a6.976,6.976,0,0,1,2.041-.457c3.18.251,6.336.74,9.516.9,1.6.078,3.2.064,4.811.05,1.951-.014,3.9-.032,5.844.119a23.593,23.593,0,0,0,4.248-.183,16.065,16.065,0,0,1,6.139.146c.4.109.887-.151,1.33-.165a4.421,4.421,0,0,1,1.348.128c2.078.621,4.4-.073,5.139-1.576a4.951,4.951,0,0,1,6.629-2.371c-.607.447-1.15.845-1.689,1.242a14.24,14.24,0,0,0,4.166.311c1.041-.068,1.955-.142,2.027,1.348.9-.128,1.691-.242,2.477-.356a4.891,4.891,0,0,0,2.32,1.1,19.033,19.033,0,0,0,3.75.21,15.624,15.624,0,0,1,4.578.406,1.2,1.2,0,0,0,.406.019c.068,0,.137-.009.2-.009,1.91.014,3.818.05,5.729.037,5.555-.05,11.105-.06,16.66-.128v27.245H18190v822.44h12.5v27.25c-4.168-.052-8.332-.072-12.5-.1V-3940h-20.268a4.713,4.713,0,0,0-.879.6l-2.477-.361c-.068,1.494-.986,1.421-2.027,1.352a13.91,13.91,0,0,0-4.162.311l1.686,1.243a4.953,4.953,0,0,1-6.629-2.375,2.591,2.591,0,0,0-.588-.772h-35.648c-.711.074-1.424.144-2.137.2a3.228,3.228,0,0,1-1.182-.2h-5.127c-3.816.847-7.633,1.7-11.43,2.617a25.861,25.861,0,0,0-3.436,1.585,2.264,2.264,0,0,1-1.73-.059c.41-.215.826-.425,1.525-.79-2.937-.8-5.445-.8-7.926.489-1.109.576-2.234,1.421-3.975.717,1.023-.288,1.736-.489,2.494-.7-.16-.26-.215-.406-.256-.4a22.067,22.067,0,0,1-7.5-.845c-1.791-.438-3.756-.708-5.523.443-.209.137-.594,0-.895,0-5.377-.009-10.777-.292-16.131.032-12.051.722-24.08,1.841-36.125,2.6-4.605.292-9.246.046-13.814.046-.146-.215-.311-.713-.518-.727-2.273-.164-4.559-.283-6.838-.329-.383-.009-.809.352-1.16.617a2.95,2.95,0,0,1-1.7.713Zm-30.615-883.477h11.594c-.023-.027-.051-.055-.074-.087h-11.529A.4.4,0,0,0,17964.953-4817.469Zm28.588-.658.072.461c.764.073,1.293.123,1.672.123.84,0,.959-.242,1.289-1.014C17995.469-4818.4,17994.5-4818.264,17993.541-4818.126Zm-8.689.479h6.547c0-.087-.006-.174-.006-.265h-6.531C17984.855-4817.821,17984.855-4817.734,17984.852-4817.647Z" transform="translate(-17846.502 4825.506)" stroke="rgba(0,0,0,0)" stroke-width="1"/>
</svg>
