<svg xmlns="http://www.w3.org/2000/svg" width="100%" height="100%" viewBox="0 0 24.935 24.935">
  <path fill="currentColor" id="Icon_awesome-spotify" data-name="Icon awesome-spotify" d="M12.467.563A12.467,12.467,0,1,0,24.935,13.03,12.472,12.472,0,0,0,12.467.563ZM17.53,18.907a.959.959,0,0,1-.538-.181c-3.137-1.89-6.787-1.971-10.391-1.232a3.246,3.246,0,0,1-.6.131.783.783,0,0,1-.794-.794.8.8,0,0,1,.684-.845c4.117-.91,8.325-.829,11.914,1.317a.85.85,0,0,1,.488.829.76.76,0,0,1-.764.774Zm1.352-3.3a1.241,1.241,0,0,1-.618-.211A16.291,16.291,0,0,0,6.269,13.92a2.07,2.07,0,0,1-.6.131.976.976,0,0,1-.975-.975.989.989,0,0,1,.779-1.041,16.909,16.909,0,0,1,4.917-.684,17.6,17.6,0,0,1,8.9,2.287,1.048,1.048,0,0,1,.568.99.974.974,0,0,1-.975.98Zm1.558-3.831a1.156,1.156,0,0,1-.649-.2C16.212,9.445,9.813,8.933,5.671,10.089a2.388,2.388,0,0,1-.648.131A1.16,1.16,0,0,1,3.851,9.033a1.188,1.188,0,0,1,.875-1.2,21.069,21.069,0,0,1,5.907-.764,21.232,21.232,0,0,1,10.326,2.4,1.18,1.18,0,0,1,.649,1.136,1.165,1.165,0,0,1-1.166,1.171Z" transform="translate(0 -0.563)"/>
</svg>
