<svg xmlns="http://www.w3.org/2000/svg" width="100%" height="100%"  viewBox="0 0 22.534 22.529">
  <path fill="currentColor" id="Icon_awesome-instagram" data-name="Icon awesome-instagram" d="M11.264,7.726A5.776,5.776,0,1,0,17.04,13.5,5.767,5.767,0,0,0,11.264,7.726Zm0,9.531A3.755,3.755,0,1,1,15.02,13.5a3.762,3.762,0,0,1-3.755,3.755Zm7.36-9.768a1.347,1.347,0,1,1-1.347-1.347A1.344,1.344,0,0,1,18.624,7.49ZM22.45,8.857a6.667,6.667,0,0,0-1.82-4.72,6.711,6.711,0,0,0-4.72-1.82c-1.86-.106-7.435-.106-9.3,0a6.7,6.7,0,0,0-4.72,1.815,6.689,6.689,0,0,0-1.82,4.72c-.106,1.86-.106,7.435,0,9.3a6.667,6.667,0,0,0,1.82,4.72,6.72,6.72,0,0,0,4.72,1.82c1.86.106,7.435.106,9.3,0a6.667,6.667,0,0,0,4.72-1.82,6.711,6.711,0,0,0,1.82-4.72c.106-1.86.106-7.43,0-9.29Zm-2.4,11.286a3.8,3.8,0,0,1-2.142,2.142c-1.483.588-5,.452-6.641.452s-5.163.131-6.641-.452a3.8,3.8,0,0,1-2.142-2.142c-.588-1.483-.452-5-.452-6.641S1.9,8.339,2.482,6.861A3.8,3.8,0,0,1,4.623,4.72c1.483-.588,5-.452,6.641-.452s5.163-.131,6.641.452a3.8,3.8,0,0,1,2.142,2.142c.588,1.483.452,5,.452,6.641S20.635,18.665,20.047,20.143Z" transform="translate(0.005 -2.238)"/>
</svg>
