<svg xmlns="http://www.w3.org/2000/svg" width="25.735" height="19.305" viewBox="0 0 25.735 19.305">
  <path id="Icon_ionic-logo-youtube" data-name="Icon ionic-logo-youtube" d="M25.568,8.763a3.908,3.908,0,0,0-3.72-4.082C19.063,4.55,16.222,4.5,13.322,4.5h-.9c-2.9,0-5.741.05-8.526.181A3.916,3.916,0,0,0,.176,8.773C.05,10.563-.005,12.352,0,14.142s.05,3.579.171,5.374a3.921,3.921,0,0,0,3.715,4.1c2.926.136,5.927.2,8.978.191q4.585.015,8.978-.191a3.922,3.922,0,0,0,3.72-4.1c.121-1.795.176-3.584.171-5.379Q25.749,11.453,25.568,8.763ZM10.406,19.074V9.2L17.7,14.132Z" transform="translate(0 -4.5)"/>
</svg>
